Coordinates
version=1
nRows=12
nColumns=24
inDegrees=yes

Units are S.I. units (second, meters, Newtons, ...)
Angles are in degrees.

endheader
time	pelvis_tilt	pelvis_list	pelvis_rotation	pelvis_tx	pelvis_ty	pelvis_tz	hip_flexion_r	hip_adduction_r	hip_rotation_r	knee_angle_r	ankle_angle_r	subtalar_angle_r	mtp_angle_r	hip_flexion_l	hip_adduction_l	hip_rotation_l	knee_angle_l	ankle_angle_l	subtalar_angle_l	mtp_angle_l	lumbar_extension	lumbar_bending	lumbar_rotation
      1.14416667	     -4.83608441	      1.78102151	     -6.31544856	      0.11598721	      1.04532448	      0.26938079	     22.59056570	     -4.25820613	     -3.30975632	    -74.36424848	      3.53053001	     -0.91062642	      5.34377484	     23.59382642	      1.17492416	     -0.02666634	    -28.80134143	     15.73200166	      3.90386615	      1.55641952	     -6.36869002	     -2.66109672	      2.42503287
      1.14833333	     -4.81251136	      1.67849598	     -6.35536379	      0.12161289	      1.04698972	      0.26949452	     23.08246697	     -4.03116782	     -3.43502952	    -73.98345938	      3.84871646	     -0.64525068	      5.37368148	     22.98556894	      1.07756379	     -0.08123555	    -28.35438777	     15.89401560	      4.01259324	      1.56598848	     -6.38584642	     -2.55478051	      2.36931257
      1.15250000	     -4.79050696	      1.56990877	     -6.38498081	      0.12723534	      1.04862043	      0.26960484	     23.55785741	     -3.80006260	     -3.57416024	    -73.53521523	      4.16272256	     -0.36361863	      5.40890419	     22.37852356	      0.97544632	     -0.13364235	    -27.90437769	     16.05519437	      4.12824623	      1.57677116	     -6.39768851	     -2.44059255	      2.30816252
      1.15666667	     -4.76359820	      1.46723361	     -6.41114696	      0.13286422	      1.05025857	      0.26971922	     24.00973625	     -3.57394346	     -3.71186080	    -73.01614986	      4.47304025	     -0.07372748	      5.44849149	     21.75809952	      0.88148048	     -0.18270486	    -27.43332367	     16.19927668	      4.23913726	      1.58785400	     -6.41881823	     -2.33276588	      2.24387941
      1.16083333	     -4.73830219	      1.36884737	     -6.43116452	      0.13848951	      1.05184983	      0.26983265	     24.44964163	     -3.35433225	     -3.85584614	    -72.44133973	      4.78428694	      0.23059902	      5.49271912	     21.13687962	      0.79443872	     -0.22644859	    -26.95209316	     16.33642583	      4.33998502	      1.59941370	     -6.43715014	     -2.22801167	      2.17658764
      1.16500000	     -4.69168095	      1.27758811	     -6.44173022	      0.14411223	      1.05343887	      0.26992594	     24.85032396	     -3.15047199	     -4.00648540	    -71.80822131	      5.09654663	      0.55087777	      5.55369174	     20.49233097	      0.72201206	     -0.26740168	    -26.46442978	     16.47485425	      4.44474428	      1.61519826	     -6.47996207	     -2.13169812	      2.09053935
      1.16916667	     -4.65672271	      1.16796405	     -6.44620272	      0.14972616	      1.05497066	      0.27002248	     25.24298287	     -2.92391528	     -4.16483339	    -71.11139143	      5.40160901	      0.85160963	      5.61930591	     19.86047324	      0.62939108	     -0.29610648	    -25.97751481	     16.60299501	      4.54050503	      1.63162606	     -6.51317259	     -2.00907992	      2.01218529
      1.17333333	     -4.64840961	      1.05581958	     -6.45001010	      0.15534247	      1.05642184	      0.27013328	     25.64699051	     -2.68602060	     -4.31689869	    -70.35464480	      5.69512055	      1.12706143	      5.66474732	     19.25971666	      0.53044181	     -0.32532047	    -25.49339654	     16.69649349	      4.61338781	      1.64180602	     -6.51538663	     -1.88016783	      1.95769795
      1.17750000	     -4.61860714	      0.96143534	     -6.44155242	      0.16094608	      1.05783898	      0.27022150	     26.01695338	     -2.48022953	     -4.47692198	    -69.55500716	      5.99768943	      1.43278623	      5.71956349	     18.63740360	      0.45783377	     -0.34246762	    -25.00228362	     16.81002075	      4.69191465	      1.65462814	     -6.54425039	     -1.77993727	      1.87590944
      1.18166667	     -4.58162588	      0.86557984	     -6.42710513	      0.16655329	      1.05923174	      0.27029772	     26.35981855	     -2.27567171	     -4.63844164	    -68.69863533	      6.28914503	      1.71869070	      5.77841052	     18.00693154	      0.38754328	     -0.35265089	    -24.50661448	     16.90865169	      4.75661589	      1.66796372	     -6.58280641	     -1.66752757	      1.78844971
      1.18583333	     -4.55924446	      0.76741460	     -6.41034812	      0.17214040	      1.06052559	      0.27037867	     26.70509978	     -2.06589307	     -4.79589678	    -67.79468612	      6.56902221	      1.97475066	      5.83004287	     17.39998348	      0.31199263	     -0.36405573	    -24.02225461	     16.99920614	      4.81599767	      1.67957665	     -6.60641837	     -1.55344438	      1.71007572
      1.19000000	     -4.54171511	      0.66327093	     -6.38217701	      0.17774160	      1.06176939	      0.27043199	     27.03342618	     -1.85648215	     -4.96326881	    -66.83531377	      6.83617232	      2.23192748	      5.88751427	     16.80072413	      0.23410390	     -0.36034216	    -23.54127302	     17.09652703	      4.87423083	      1.69294972	     -6.62384979	     -1.42581993	      1.61743539
